<?xml version="1.0" encoding="utf-8"?>
<!-- Generator: Adobe Illustrator 25.0.1, SVG Export Plug-In . SVG Version: 6.00 Build 0)  -->
<svg version="1.1" id="Capa_1" xmlns="http://www.w3.org/2000/svg" xmlns:xlink="http://www.w3.org/1999/xlink" x="0px" y="0px"
	 viewBox="0 0 1058.36 470.64" style="enable-background:new 0 0 1058.36 470.64;" xml:space="preserve">
<style type="text/css">
	.st0{fill:#D9917B;}
	.st1{fill:#FFFFFF;}
	.st2{font-family:'aAcakadut';}
	.st3{font-size:240.074px;}
	.st4{font-family:'IMPACTED';}
	.st5{font-size:112.2215px;}
	.st6{letter-spacing:24;}
</style>
<path class="st0" d="M1042.83,355.67c-2.25,1.95-4.51,4.01-6.86,5.94c-6.39,5.26-13.52,7.51-21.65,5.33
	c-1.06-0.29-2.03-0.93-3.04-1.41c0.51-0.86,1.09-1.57-0.42-2.21c-1.09-0.46-1.89-0.09-2.86,0.12c-0.94,0.2-1.62-0.63-2.29-1.24
	c-0.94-0.85-1.86-1.72-2.93-2.72c-0.33,1.57,1.48,2.79-0.1,3.8c-1.26,0.81-2.06-0.07-2.67-1.19c-0.11-0.21-0.61-0.42-0.79-0.33
	c-3.3,1.62-5.24-1.11-7.45-2.59c-2.53-1.69-4.85-3.71-7.22-5.65c-1-0.82-1.78-1.03-2.97-0.21c-3.32,2.28-4.99,1.61-6.51-2.25
	c-0.58-1.48-0.68-3.4-2.61-3.99c-0.66,0.82,0.48,1.68-0.35,2.34c-0.76-0.64-2.01-1.28-1.79-2.29c0.66-3.13-0.51-4.57-3.37-5.61
	c-2.33-0.85-3.96-1.46-4.32,1.93c-1.35-0.62-1.81-1.73-2.54-2.58c-0.76-0.88-1.66-0.72-1.54,0.36c0.52,4.61-1.44,1.71-2.53,0.9
	c-1.36-1.01-2.57-2.23-3.88-3.31c-0.92-0.76-1.77-2.07-3.17-1.18c-1.15,0.74-0.75,2.08-0.64,3.18c0.38,3.86,0.83,7.71,1.22,11.31
	c-2.16,0.65-3.61-1.93-4.46-1.58c-2.85,1.17-4.84-1.44-7.65-1.16c1.2,4.42,2.38,8.71,3.55,13.01c-1.99-1.18-3.23-3.5-4.86-3.83
	c-2.28-0.46-2.71-1.71-3.36-3.41c-0.64-1.67-1.31-4.15-3.23-3.87c-1.83,0.27-1.25,2.82-1.55,4.43c-0.03,0.16-0.17,0.31-0.44,0.76
	c-0.75-2.19-3.15-4.05-2.03-5.65c0.89-1.27,0.48-1.4-0.03-2.17c-0.78-1.19-1.48-2.46-2.24-3.67c-2.42,0.95-4.93,2.04-6.81-1.86
	c-1.28,1.61-1.1,3.14-2.11,5.06c-0.43-0.66-0.88-1.3-1.3-1.97c-1.64-2.65-0.68-5.11,2.26-5.87c0.86-0.22,1.72-0.45,2.58-0.69
	c-0.85-0.35-1.76-0.47-2.72-0.19c-3.74,1.07-4.38,1.04-5.15-2.98c-0.21-1.11-0.17-2.27-0.25-3.41c-0.39,5.36-4.36,3.35-7,3.43
	c-3.14,0.09-5.3-2.72-8.2-3.86c-0.29,1.26,0.08,3.25-1.59,3.02c-2.05-0.29-0.9-2.64-1.55-3.96c-2.33,2.67-5.04,0.98-12.4-7.79
	c-0.09,1.59-0.17,2.96-0.25,4.36c-1.36-0.43-0.77-2.33-2.42-2.53c-0.04,2.78-1.25,5.15-3.73,5.85c-1.61,0.45-3.92-1.95-4.94,1.32
	c-2.39-1.83-1.77,0.86-2.09,1.63c-0.48,1.15,0.05,2.69-1.34,3.69c-0.53-2.46-0.94-4.84-1.58-7.14c-0.66-2.35-2.02-2.62-3.6-0.83
	c-0.45,0.51-0.75,1.15-1.19,1.67c-0.72,0.85-1.34,2.06-2.65,1.8c-1.32-0.26-1.46-1.65-1.79-2.7c-1.09-3.52-0.76-7.23-0.94-11.45
	c-0.96,2.05-0.62,4.02-2.4,4.99c-0.64-1.61,0.04-3.12-0.18-4.59c-0.14-0.94-0.88-1.82-1.41-0.72c-0.59,1.24-2.03,1.98-1.92,3.65
	c0.37,5.62-1.19,11.14-0.93,16.78c0.08,1.79-1.38,2.87-2.86,3.45c-0.94,0.37-1.93-0.48-2.04-1.34c-0.2-1.55-1.74-2.38-1.99-3.09
	c-1.28-3.71-2.43-1.82-3.89-0.38c-1.78,1.75-3.07,1.39-3.79-0.97c-1.18-3.85-3.34-4.53-6.49-2.08c-1.49,1.16-2.8,2.61-4.76,3.2
	c-0.59-1.5,0.33-3.08-0.7-4.54c-1.3,1.42-0.45,3.27-1.41,5.43c0-2.16,0-3.52,0-4.92c-3.68,1.98-1.81-2.42-3.35-2.79
	c-0.46,1.27,0.35,2.72-0.6,4.15c-3.02-1.96-2.95-5.05-2.61-7.93c0.23-1.97-0.57-3.91-1.77-3.89c-2.86,0.06-2.75-1.91-3.13-4.77
	c-1.33,3.29-3.64,6.62-2.91,7.64c1.79,2.49,0.29,4.67,0.68,6.89c0.14,0.81-0.33,2.26-1.54,2.3c-0.89,0.03-1.72-1.01-1.84-1.79
	c-0.32-1.99-2.94-1.9-3.14-3.91c-0.09,0.95-0.18,1.9-0.29,2.99c-0.87-0.76,0.09-2.32-1.5-2.54c-0.44,1.72-0.04,3.56-1.04,5.07
	c-0.42,0.62-1.44,1.71-1.6,0.77c-0.27-1.58-2.13-2.31-1.66-4.16c0.3-1.18,0.77-2.43,0.25-3.97c-0.45,1.75-0.8,3.3-1.25,4.82
	c-0.2,0.67-0.61,1.25-1.47,1.11c-0.55-0.09-0.8-0.48-0.65-0.96c0.69-2.23-1.01-2.26-2.24-2.42c-3.19-0.4-4.94-1.85-4.26-5.71
	c-0.32,2.6-3.04,0.87-3.38,2.23c-0.64,2.56-2.37,1.56-3.59,1.33c-1.52-0.28-0.98-1.89-0.92-2.92c0.17-2.62-1.28-2.39-2.66-1.52
	c-1.61,1.01-2.91,2.52-4.48,3.61c-2.51,1.75-4.66,1.12-5.7-1.5c-2.39-6.04-7.44-7.95-13.26-5.04c-4.63,2.32-9.14,4.88-13.94,6.83
	c-1.59,0.65-2.28,0.42-3.13-1.13c-1.86-3.37-3.02-3.52-6.59-1.76c-2.29,1.13-4.45,3.56-7.34,1.22c-0.47-0.38-0.87-0.02-1,0.44
	c-0.75,2.68-1.9,1.42-3.22,0.48c-0.58-0.41-1.58-0.63-2.23-0.42c-3.18,1.04-5.6-0.05-7.82-3.24c-0.14,1.9-1.73,2.31-1.57,3.86
	c0.09,0.88,0.83,2.37-0.82,2.4c-1.56,0.03-1.86-1.39-1.83-2.76c0.02-0.81,0.06-1.61,0.11-2.42c0.08-1.65-0.11-3.03-2.15-1.67
	c-1.23,0.82-2.14,0.46-3.22-1.06c0.24,1.88,0.44,3.13,0.54,4.38c0.05,0.64-0.06,1.84-0.88,1.26c-1.7-1.2-2.15,0.35-2.93,1.07
	c-2.76,2.56-5.77,2.77-9.01,1.17c-1.01-0.5-2.03-0.98-3-1.55c-2.8-1.66-5.34-1.13-7.8,0.77c-2.07,1.59-3.36,0.93-4.04-1.73
	c-0.32-1.23-0.09-3.12-1.74-3.42c-1.77-0.32-1.85,1.66-2.59,2.71c-0.87,1.25-0.82,3.2-2.5,3.8c-1.7,0.61-1.73,0.52-0.91,2.23
	c-2.03,0.63-3.01-1.57-4.37-2.23c-4.03-1.96-8.01-2.69-12.31-2.67c-5.36,0.02-10.77,0.76-16.04-0.93c-0.84-0.27-1.19-0.1-1.77,0.79
	c-1.4,2.12-5,2.44-6.27,0.46c-2.33-3.63-3.32-1.4-4.48,0.77c-0.48,0.91-0.89,1.86-1.33,2.79c-0.48,1.02-0.77,2.48-2.07,2.41
	c-1.58-0.09-1.38-1.82-1.84-2.92c-0.19-0.46,0.4-1.12-0.35-1.47c-1.04,0.4-1.35,1.49-1.99,2.25c-0.73,0.87-1.32,1.86-2.03,2.74
	c-1.35,1.67-2.84,2.24-3.72-0.28c-0.78-2.23-1.91-1.83-3.32-0.94c-1.05,0.66-2.1,1.32-3.1,2.06c-1.02,0.75-1.73,0.77-2.41-0.49
	c-2.29-4.26-2.41-4.31-6.6-2.38c-2.37,1.1-4.55,1.68-6.2-1.65c-3.77,9.21-10.51,20.38-11.37,29.15s0.09,36.77,5.45,54.61
	c0.53,1.77,0.97,2.66,3.17,2.18c5.68-1.24,11.45-2.08,17.18-3.09c1.98-0.35,3.69,0.08,5.37,1.29c4.04,2.9,8.21,5.61,12.29,8.47
	c1.16,0.81,2.31,1.26,3.73,1.25c11.22-0.09,22.44-0.18,33.66-0.17c4.75,0,9.12-0.43,10.56-6.24c0.02-0.09,0.17-0.14,0.47-0.36
	c2.97,4.62,7.36,6.06,12.48,5.26c5.34-0.84,10.6-1.65,15.13,2.73c0.52-2.19-0.16-4.09,0.78-5.86c1.01,0.22,1.44,0.87,1.52,1.7
	c0.27,2.74,1.91,3.12,4.2,2.91c4.46-0.41,8.95-0.49,13.41-0.96c11.6-1.23,23.2-2.07,34.88-1.8c9.43,0.22,17.56,4.41,25.83,8.3
	c0.3,0.14,0.6,0.37,0.77,0.65c0.98,1.58,1.75,0.97,2.83-0.02c3.75-3.44,8.2-5.12,13.25-4.9c3.4,0.15,7.3,1.62,10.09,0.39
	c4.89-2.17,8.14,0.23,11.39,2.59c2.42,1.76,4.8,2.03,7.46,1.99c9.88-0.15,19.62-1.7,29.37-3.11c10.24-1.48,20.51-2.43,30.82-1.6
	c5.3,0.43,10.61,1.22,15.45,4.09c3.35,1.99,7.21,2.36,11.1,1.58c3.73-0.75,7.46-1.48,11.19-2.19c5.7-1.09,11.51-1.68,16.67,1.56
	c2.89,1.82,5.83,2.41,8.93,2.22c7.85-0.49,15.48-2.19,22.87-4.98c5.13-1.94,5.13-1.95,2.15-6.56c-2.03-3.14-1.97-3.2,1.48-4.2
	c5.04-1.46,10.29-0.15,15.36-1.32c3.61-0.83,7.26-2.11,9.39-5.06c2.25-3.11,3.63-4.42,7.41-3.6c4.53,0.97,8.67,3.05,12.91,4.82
	c1,0.41,1.92,1.37,2.8-0.01c-0.81-1.5-4.07-1.06-3.15-3.65c0.8-2.28,1.21-5.38,3.77-6.19c1.95-0.62,1.63,2.34,2.79,3.26
	c1.09-2.88,4-3.62,6.19-5.19c1.6-1.15,2.91,0.58,4.24,1.26c1.91,0.97,2.19-0.09,2.06-1.62c-0.1-1.14-0.46-2.25-0.61-3.39
	c-0.58-4.41-0.11-5.1,4.11-6.31c0.41-0.12,0.91-0.15,0.92-0.96c-3.1-1.81-1.37-4-0.49-6.41c0.72-1.96,1.58-0.87,2.67-0.69
	c-0.3,0.48-0.54,0.85-0.77,1.22c-0.22,0.36-0.43,0.73-0.7,1.18c4.32,0.25,4.26,0.27,3.47-3.57c-0.12-0.58,0.63-1.39,1.06-2.04
	c2.6-3.92,4.88-8.01,6.07-12.63C1043.09,363.25,1043.86,359.15,1042.83,355.67z"/>
<g>
	<path d="M106,359.15c-1.97-12.03-4.23-22.96-5.46-34c-1.8-16.12-1.63-32.27,1.8-48.24c2.94-13.69,9.55-25.48,18.66-35.96
		c1.49-1.72,2.95-3.47,4.65-5.47c-2.95-2.07-5.57-3.79-8.05-5.69c-28.28-21.64-40.61-50.12-36.85-85.61
		c0.35-3.32-0.05-6.99-1.1-10.16C72.05,111.27,64.22,88.6,60.6,64.78c-0.92-6.07-1.4-12.26-1.39-18.4
		c0.01-7.5,3.69-10.91,11.19-11.13c18.96-0.57,36.55,4.81,53.38,12.91c8.24,3.97,16.06,8.78,24.22,12.93
		c1.84,0.93,4.49,1.37,6.42,0.83c17.62-4.98,35.37-5.94,53.44-2.91c2.25,0.38,5.3-0.51,7.17-1.9c15.31-11.35,31.03-21.99,49.26-28.1
		c7.21-2.42,14.77-4,22.29-5.26c9.57-1.61,13.79,1.7,14.82,11.37c1.66,15.55-0.13,30.96-2.9,46.23
		c-2.65,14.57-5.86,29.04-8.74,43.57c-0.34,1.73-0.62,3.68-0.18,5.34c5.97,22.73,3.85,44.56-6.99,65.48
		c-0.28,0.55-0.36,1.2-0.67,2.25c6.45-0.72,12.52-1.67,18.62-2.03c68.6-4.02,128.78,15.2,177,65.67
		c19.25,20.15,31.16,44.43,33.5,72.58c3.46,41.53-13.62,72.81-49.07,93.93c-25.15,14.98-52.99,19.07-81.83,17.68
		c-34.47-1.66-67.13-11.66-99.69-22.02c-32.22-10.24-64.42-20.53-97.92-25.92c-42.36-6.81-83.99-5.75-124.13,11.53
		c-2.73,1.17-5.67,2.03-8.6,2.54c-6.59,1.13-12.72,0.1-17.17-5.46c-4.59-5.74-4.99-12.27-2.41-18.89
		c3.23-8.28,9.55-14.01,17.82-16.35c10.52-2.98,21.42-4.6,32.15-6.8C88.8,362.67,97.41,360.91,106,359.15z M138.89,141.27
		c-9.68,0.03-17.22,3.36-23.6,9.58c-1.88,1.83-1.93,3.37-0.66,5.65c9.91,17.95,35.81,20.74,49.47,5.36c2.11-2.38,2-4.11,0.29-6.49
		C157.91,146.38,149.3,141.53,138.89,141.27z M229.82,167.35c12.12-0.67,21.52-6.11,27.46-17.31c1.68-3.18,1.41-5.22-1.58-7.54
		c-15.47-12.02-39.43-6.56-47.63,11.2c-0.64,1.39-0.05,4.31,1.06,5.39C214.74,164.52,221.71,167.02,229.82,167.35z"/>
	<path class="st1" d="M138.89,141.27c10.41,0.26,19.02,5.11,25.49,14.09c1.71,2.38,1.82,4.12-0.29,6.49
		c-13.66,15.38-39.56,12.6-49.47-5.36c-1.26-2.28-1.21-3.82,0.66-5.65C121.68,144.63,129.21,141.3,138.89,141.27z M142.84,143.72
		c1.73,4.1,1.73,7.73-3,9.38c-1.23,0.43-3.49,0.23-4.17-0.59c-1.62-1.96-2.58-4.46-3.79-6.73c-5.78,4.33-7.65,10.57-4.86,16.81
		c2.7,6.06,8.96,9.23,15.6,7.9c6.18-1.24,10.85-6.72,11.11-13.05C153.98,151.01,149.84,145.66,142.84,143.72z"/>
	<path class="st1" d="M229.82,167.35c-8.12-0.33-15.09-2.83-20.68-8.26c-1.11-1.08-1.7-4-1.06-5.39
		c8.2-17.76,32.16-23.22,47.63-11.2c2.99,2.32,3.26,4.37,1.58,7.54C251.34,161.24,241.94,166.68,229.82,167.35z M229.7,138.66
		c-6.99,3.03-10.12,8.83-8.62,15.94c1.35,6.42,7.57,11.06,14.35,10.72c6.51-0.33,11.86-5.2,12.95-11.8
		c1.04-6.28-2.19-11.97-7.97-14.03c0.44,5.33-1.4,8.13-5.35,8.16C230.95,147.68,229.31,144.93,229.7,138.66z"/>
	<path d="M142.84,143.72c6.99,1.94,11.14,7.29,10.88,13.72c-0.26,6.33-4.92,11.81-11.11,13.05c-6.64,1.33-12.89-1.84-15.6-7.9
		c-2.79-6.24-0.93-12.48,4.86-16.81c1.22,2.27,2.17,4.77,3.79,6.73c0.68,0.82,2.95,1.02,4.17,0.59
		C144.57,151.45,144.58,147.82,142.84,143.72z"/>
	<path d="M229.7,138.66c-0.39,6.27,1.25,9.02,5.37,8.99c3.95-0.02,5.79-2.82,5.35-8.16c5.77,2.06,9,7.75,7.97,14.03
		c-1.09,6.6-6.43,11.47-12.95,11.8c-6.79,0.34-13-4.3-14.35-10.72C219.58,147.49,222.71,141.69,229.7,138.66z"/>
</g>
<g>
	<path class="st1" d="M186.4,169.94c-10.51,1.87-32.34,50.23-23.9,56c26.68,6.97,63.46-3.03,67.18-12.72
		C233.59,197.46,196.91,168.08,186.4,169.94z"/>
	<path d="M179.62,182.92c-1.23,2.61,9.88,17.59,14.59,17.31c4.71-0.28,9.49-17.32,7.12-18.66
		C198.94,180.22,180.85,180.31,179.62,182.92z"/>
	<g>
		<path class="st1" d="M206.93,184.93c3.99-1.17,7.99-2.2,12.03-3.13c4.04-0.93,8.1-1.75,12.19-2.4c4.09-0.64,8.21-1.13,12.36-1.24
			c2.07-0.05,4.15,0.02,6.2,0.28c2.04,0.28,4.11,0.75,5.9,1.8c-1.82-1-3.88-1.43-5.92-1.67c-2.05-0.22-4.12-0.25-6.18-0.16
			c-4.12,0.19-8.22,0.76-12.28,1.48c-4.06,0.73-8.09,1.63-12.1,2.64c-4,1.01-7.98,2.12-11.91,3.35L206.93,184.93z"/>
	</g>
	<g>
		<path class="st1" d="M176.42,185.26c-4.2-0.36-8.43-0.59-12.65-0.72c-4.22-0.13-8.45-0.13-12.68,0.02
			c-4.22,0.17-8.44,0.49-12.61,1.19c-2.08,0.36-4.15,0.82-6.15,1.48c-1.99,0.67-3.97,1.53-5.59,2.91c1.59-1.41,3.56-2.32,5.55-3.03
			c2-0.7,4.07-1.21,6.15-1.61c4.17-0.78,8.4-1.2,12.63-1.45c4.23-0.24,8.48-0.31,12.72-0.27c4.24,0.04,8.48,0.19,12.72,0.47
			L176.42,185.26z"/>
	</g>
	<g>
		<path class="st1" d="M176.61,185.82c-4.2,0.3-8.42,0.74-12.6,1.28c-4.19,0.54-8.37,1.2-12.52,2.01
			c-4.14,0.83-8.26,1.81-12.27,3.16c-2,0.68-3.97,1.46-5.85,2.43c-1.86,0.97-3.68,2.13-5.06,3.75c1.35-1.64,3.15-2.85,5-3.86
			c1.87-1.01,3.83-1.83,5.82-2.56c4-1.43,8.11-2.5,12.25-3.41c4.14-0.9,8.32-1.64,12.51-2.27c4.2-0.62,8.4-1.14,12.63-1.53
			L176.61,185.82z"/>
	</g>
	<g>
		<path class="st1" d="M209.31,184.48c3.74-0.29,7.47-0.41,11.21-0.41c3.74,0,7.47,0.14,11.2,0.46c3.72,0.33,7.43,0.85,11.07,1.71
			c3.61,0.91,7.22,2.1,10.3,4.24c-3.12-2.07-6.74-3.18-10.35-4c-3.64-0.78-7.34-1.21-11.05-1.46c-3.71-0.24-7.43-0.29-11.15-0.21
			c-3.71,0.09-7.44,0.29-11.12,0.65L209.31,184.48z"/>
	</g>
</g>
<g>
	<path d="M-506,359.15c-1.97-12.03-4.23-22.96-5.46-34c-1.8-16.12-1.63-32.27,1.8-48.24c2.94-13.69,9.55-25.48,18.66-35.96
		c1.49-1.72,2.95-3.47,4.65-5.47c-2.95-2.07-5.57-3.79-8.05-5.69c-28.28-21.64-40.61-50.12-36.85-85.61
		c0.35-3.32-0.05-6.99-1.1-10.16c-7.59-22.75-15.42-45.43-19.04-69.25c-0.92-6.07-1.4-12.26-1.39-18.4
		c0.01-7.5,3.69-10.91,11.19-11.13c18.96-0.57,36.55,4.81,53.38,12.91c8.24,3.97,16.06,8.78,24.22,12.93
		c1.84,0.93,4.49,1.37,6.42,0.83c17.62-4.98,35.37-5.94,53.44-2.91c2.25,0.38,5.3-0.51,7.17-1.9c15.31-11.35,31.03-21.99,49.26-28.1
		c7.21-2.42,14.77-4,22.29-5.26c9.57-1.61,13.79,1.7,14.82,11.37c1.66,15.55-0.13,30.96-2.9,46.23
		c-2.65,14.57-5.86,29.04-8.74,43.57c-0.34,1.73-0.62,3.68-0.18,5.34c5.97,22.73,3.85,44.56-6.99,65.48
		c-0.28,0.55-0.36,1.2-0.67,2.25c6.45-0.72,12.52-1.67,18.62-2.03c68.6-4.02,128.78,15.2,177,65.67
		c19.25,20.15,31.16,44.43,33.5,72.58c3.46,41.53-13.62,72.81-49.07,93.93c-25.15,14.98-52.99,19.07-81.83,17.68
		c-34.47-1.66-67.13-11.66-99.69-22.02c-32.22-10.24-64.42-20.53-97.92-25.92c-42.36-6.81-83.99-5.75-124.13,11.53
		c-2.73,1.17-5.67,2.03-8.6,2.54c-6.59,1.13-12.72,0.1-17.17-5.46c-4.59-5.74-4.99-12.27-2.41-18.89
		c3.23-8.28,9.55-14.01,17.82-16.35c10.52-2.98,21.42-4.6,32.15-6.8C-523.2,362.67-514.59,360.91-506,359.15z M-473.11,141.27
		c-9.68,0.03-17.22,3.36-23.6,9.58c-1.88,1.83-1.93,3.37-0.66,5.65c9.91,17.95,35.81,20.74,49.47,5.36c2.11-2.38,2-4.11,0.29-6.49
		C-454.09,146.38-462.7,141.53-473.11,141.27z M-382.18,167.35c12.12-0.67,21.52-6.11,27.46-17.31c1.68-3.18,1.41-5.22-1.58-7.54
		c-15.47-12.02-39.43-6.56-47.63,11.2c-0.64,1.39-0.05,4.31,1.06,5.39C-397.26,164.52-390.29,167.02-382.18,167.35z"/>
	<path class="st1" d="M-473.11,141.27c10.41,0.26,19.02,5.11,25.49,14.09c1.71,2.38,1.82,4.12-0.29,6.49
		c-13.66,15.38-39.56,12.6-49.47-5.36c-1.26-2.28-1.21-3.82,0.66-5.65C-490.32,144.63-482.79,141.3-473.11,141.27z M-469.16,143.72
		c1.73,4.1,1.73,7.73-3,9.38c-1.23,0.43-3.49,0.23-4.17-0.59c-1.62-1.96-2.58-4.46-3.79-6.73c-5.78,4.33-7.65,10.57-4.86,16.81
		c2.7,6.06,8.96,9.23,15.6,7.9c6.18-1.24,10.85-6.72,11.11-13.05C-458.02,151.01-462.16,145.66-469.16,143.72z"/>
	<path class="st1" d="M-382.18,167.35c-8.12-0.33-15.09-2.83-20.68-8.26c-1.11-1.08-1.7-4-1.06-5.39
		c8.2-17.76,32.16-23.22,47.63-11.2c2.99,2.32,3.26,4.37,1.58,7.54C-360.66,161.24-370.06,166.68-382.18,167.35z M-382.3,138.66
		c-6.99,3.03-10.12,8.83-8.62,15.94c1.35,6.42,7.57,11.06,14.35,10.72c6.51-0.33,11.86-5.2,12.95-11.8
		c1.04-6.28-2.19-11.97-7.97-14.03c0.44,5.33-1.4,8.13-5.35,8.16C-381.05,147.68-382.69,144.93-382.3,138.66z"/>
	<path d="M-469.16,143.72c6.99,1.94,11.14,7.29,10.88,13.72c-0.26,6.33-4.92,11.81-11.11,13.05c-6.64,1.33-12.89-1.84-15.6-7.9
		c-2.79-6.24-0.93-12.48,4.86-16.81c1.22,2.27,2.17,4.77,3.79,6.73c0.68,0.82,2.95,1.02,4.17,0.59
		C-467.43,151.45-467.42,147.82-469.16,143.72z"/>
	<path d="M-382.3,138.66c-0.39,6.27,1.25,9.02,5.37,8.99c3.95-0.02,5.79-2.82,5.35-8.16c5.77,2.06,9,7.75,7.97,14.03
		c-1.09,6.6-6.43,11.47-12.95,11.8c-6.79,0.34-13-4.3-14.35-10.72C-392.42,147.49-389.29,141.69-382.3,138.66z"/>
</g>
<g>
	<path class="st1" d="M-425.6,169.94c-10.51,1.87-32.34,50.23-23.9,56c26.68,6.97,63.46-3.03,67.18-12.72
		C-378.41,197.46-415.09,168.08-425.6,169.94z"/>
	<path d="M-432.38,182.92c-1.23,2.61,9.88,17.59,14.59,17.31c4.71-0.28,9.49-17.32,7.12-18.66
		C-413.06,180.22-431.15,180.31-432.38,182.92z"/>
	<g>
		<path class="st1" d="M-405.07,184.93c3.99-1.17,7.99-2.2,12.03-3.13c4.04-0.93,8.1-1.75,12.19-2.4c4.09-0.64,8.21-1.13,12.36-1.24
			c2.07-0.05,4.15,0.02,6.2,0.28c2.04,0.28,4.11,0.75,5.9,1.8c-1.82-1-3.88-1.43-5.92-1.67c-2.05-0.22-4.12-0.25-6.18-0.16
			c-4.12,0.19-8.22,0.76-12.28,1.48c-4.06,0.73-8.09,1.63-12.1,2.64c-4,1.01-7.98,2.12-11.91,3.35L-405.07,184.93z"/>
	</g>
	<g>
		<path class="st1" d="M-435.58,185.26c-4.2-0.36-8.43-0.59-12.65-0.72c-4.22-0.13-8.45-0.13-12.68,0.02
			c-4.22,0.17-8.44,0.49-12.61,1.19c-2.08,0.36-4.15,0.82-6.15,1.48c-1.99,0.67-3.97,1.53-5.59,2.91c1.59-1.41,3.56-2.32,5.55-3.03
			c2-0.7,4.07-1.21,6.15-1.61c4.17-0.78,8.4-1.2,12.63-1.45c4.23-0.24,8.48-0.31,12.72-0.27c4.24,0.04,8.48,0.19,12.72,0.47
			L-435.58,185.26z"/>
	</g>
	<g>
		<path class="st1" d="M-435.39,185.82c-4.2,0.3-8.42,0.74-12.6,1.28c-4.19,0.54-8.37,1.2-12.52,2.01
			c-4.14,0.83-8.26,1.81-12.27,3.16c-2,0.68-3.97,1.46-5.85,2.43c-1.86,0.97-3.68,2.13-5.06,3.75c1.35-1.64,3.15-2.85,5-3.86
			c1.87-1.01,3.83-1.83,5.82-2.56c4-1.43,8.11-2.5,12.25-3.41c4.14-0.9,8.32-1.64,12.51-2.27c4.2-0.62,8.4-1.14,12.63-1.53
			L-435.39,185.82z"/>
	</g>
	<g>
		<path class="st1" d="M-402.69,184.48c3.74-0.29,7.47-0.41,11.21-0.41c3.74,0,7.47,0.14,11.2,0.46c3.72,0.33,7.43,0.85,11.07,1.71
			c3.61,0.91,7.22,2.1,10.3,4.24c-3.12-2.07-6.74-3.18-10.35-4c-3.64-0.78-7.34-1.21-11.05-1.46c-3.71-0.24-7.43-0.29-11.15-0.21
			c-3.71,0.09-7.44,0.29-11.12,0.65L-402.69,184.48z"/>
	</g>
</g>
<text transform="matrix(1 0 0 1 586.8438 317.1057)" class="st0 st2 st3">Java</text>
<text transform="matrix(1 0 0 1 577.6729 411.6877)" class="st1 st4 st5 st6">the cat</text>
</svg>
